<?xml version="1.0" encoding="UTF-8"?>
<svg width="40px" height="43px" viewBox="0 0 40 43" version="1.1" xmlns="http://www.w3.org/2000/svg" xmlns:xlink="http://www.w3.org/1999/xlink">
    <title>top10</title>
    <g id="Page-1" stroke="none" stroke-width="1" fill="none" fill-rule="evenodd">
        <path d="M40,0 L40,42.8571429 L0,42.8571429 L0,0 L40,0 Z M37.1428571,2.85714286 L2.85714286,2.85714286 L2.85714286,40 L37.1428571,40 L37.1428571,2.85714286 Z M24.0302181,19.7005091 C25.2206424,19.7005091 26.2634303,20.0008727 27.1568849,20.6007516 C28.0503394,21.2014789 28.7384606,22.054206 29.223794,23.1597819 C29.7074303,24.2653576 29.9509454,25.5601454 29.9509454,27.0441454 C29.9509454,28.5408727 29.7074303,29.838206 29.223794,30.9378424 C28.7384606,32.0374789 28.0503394,32.8868121 27.1568849,33.4866909 C26.2634303,34.0865697 25.2206424,34.3869333 24.0302181,34.3869333 C22.8389454,34.3869333 21.797006,34.0865697 20.9035516,33.4866909 C20.0109454,32.8868121 19.3211273,32.0374789 18.8366424,30.9378424 C18.3521576,29.838206 18.1094909,28.5408727 18.1094909,27.0441454 C18.1094909,25.5601454 18.3521576,24.2653576 18.8366424,23.1597819 C19.3211273,22.054206 20.0109454,21.2014789 20.9035516,20.6007516 C21.797006,20.0008727 22.8389454,19.7005091 24.0302181,19.7005091 Z M15.8214667,19.7940121 L15.8214667,34.1563151 L12.6668,34.1563151 L12.6668,23.8073454 L9.83031516,24.5404364 L9.83031516,21.3238303 L15.8214667,19.7940121 Z M24.0302181,22.4173576 C23.1842789,22.4173576 22.5207636,22.8220849 22.0388243,23.6306909 C21.5577333,24.4401454 21.3176121,25.5779636 21.3176121,27.0441454 C21.3176121,28.5103273 21.5577333,29.647297 22.0388243,30.4567516 C22.5207636,31.2653576 23.1842789,31.6700849 24.0302181,31.6700849 C24.8761576,31.6700849 25.5396727,31.2653576 26.0207636,30.4567516 C26.5018546,29.647297 26.7428243,28.5103273 26.7428243,27.0441454 C26.7428243,25.5779636 26.5018546,24.4401454 26.0207636,23.6306909 C25.5396727,22.8220849 24.8761576,22.4173576 24.0302181,22.4173576 Z M14.9558424,8.88589091 L14.9558424,11.1123152 L12.0913576,11.1123152 L12.0913576,18.3346181 L9.51196364,18.9523151 L9.51196364,11.1123152 L6.64747879,11.1123152 L6.64747879,8.88589091 L14.9558424,8.88589091 Z M20.1009697,8.65510303 C20.8255757,8.65510303 21.4882424,8.7798303 22.0898181,9.02843636 C22.691394,9.27789091 23.2140606,9.6257697 23.6578181,10.0737697 C24.1015757,10.5217697 24.4426667,11.0469818 24.6827879,11.6485576 C24.9229091,12.2509818 25.0425454,12.9043152 25.0425454,13.6102545 C25.0425454,14.316194 24.9229091,14.9703757 24.6827879,15.5719516 C24.4426667,16.1743757 24.1015757,16.6987394 23.6578181,17.1467394 C23.2140606,17.5947394 22.691394,17.9434667 22.0898181,18.1920727 C21.4882424,18.4415273 20.8255757,18.565406 20.1009697,18.565406 C19.3763636,18.565406 18.713697,18.4415273 18.1121211,18.1920727 C17.5105454,17.9434667 16.9878789,17.5947394 16.5441211,17.1467394 C16.1012121,16.6987394 15.7592727,16.1743757 15.5191516,15.5719516 C15.2790303,14.9703757 15.159394,14.316194 15.159394,13.6102545 C15.159394,12.9043152 15.2790303,12.2509818 15.5191516,11.6485576 C15.7592727,11.0469818 16.1012121,10.5217697 16.5441211,10.0737697 C16.9878789,9.6257697 17.5105454,9.27789091 18.1121211,9.02843636 C18.713697,8.7798303 19.3763636,8.65510303 20.1009697,8.65510303 Z M30.133794,8.88580606 C30.9033697,8.88580606 31.5677333,9.02580606 32.1294303,9.30665454 C32.6902789,9.58750303 33.124703,9.9812 33.432703,10.4877455 C33.7398546,10.9951394 33.8942789,11.578897 33.8942789,12.2390182 C33.8942789,12.9178061 33.7398546,13.510897 33.432703,14.0174424 C33.124703,14.5239879 32.6902789,14.9185333 32.1294303,15.1985333 C31.5677333,15.4793819 30.9033697,15.6193819 30.133794,15.6193819 L28.6268849,15.6193819 L28.6268849,18.3345333 L26.0474909,18.3345333 L26.0474909,8.88580606 L30.133794,8.88580606 Z M20.1009697,10.9358303 C19.639394,10.9358303 19.2346667,11.0469818 18.8859394,11.2684364 C18.5372121,11.4907394 18.265697,11.8021333 18.071394,12.2051636 C17.8770909,12.6081939 17.7795151,13.0765576 17.7795151,13.6102545 C17.7795151,14.1448 17.8770909,14.6123151 18.071394,15.0153454 C18.265697,15.4183757 18.5372121,15.7306181 18.8859394,15.9520727 C19.2346667,16.1743757 19.639394,16.2846789 20.1009697,16.2846789 C20.5625454,16.2846789 20.9672727,16.1743757 21.316,15.9520727 C21.6647273,15.7306181 21.9362424,15.4183757 22.1305454,15.0153454 C22.325697,14.6123151 22.4224243,14.1448 22.4224243,13.6102545 C22.4224243,13.0765576 22.325697,12.6081939 22.1305454,12.2051636 C21.9362424,11.8021333 21.6647273,11.4907394 21.316,11.2684364 C20.9672727,11.0469818 20.5625454,10.9358303 20.1009697,10.9358303 Z M29.7265211,11.0443515 L28.6268849,11.0443515 L28.6268849,13.4608364 L29.7265211,13.4608364 C30.2695516,13.4608364 30.6632484,13.3547758 30.9076121,13.1418061 C31.1519757,12.9296848 31.2741576,12.6284727 31.2741576,12.2390182 C31.2741576,11.858897 31.1519757,11.5653212 30.9076121,11.3565939 C30.6632484,11.1487152 30.2695516,11.0443515 29.7265211,11.0443515 Z" id="top10" fill="#FFFFFF" fill-rule="nonzero"></path>
    </g>
</svg>