<svg xmlns="http://www.w3.org/2000/svg" width="32.336" height="27.919" viewBox="0 0 32.336 27.919">
  <g id="volume-up-interface-symbol" transform="translate(0 -34.302)">
    <g id="Group_7002" data-name="Group 7002" transform="translate(0 34.552)">
      <path id="Path_19446" data-name="Path 19446" d="M13.575,63.952a1.187,1.187,0,0,0-.868.366L6.286,70.739H1.234a1.187,1.187,0,0,0-.868.366A1.186,1.186,0,0,0,0,71.974v7.4a1.186,1.186,0,0,0,.366.868,1.187,1.187,0,0,0,.868.367H6.286l6.421,6.421a1.234,1.234,0,0,0,2.1-.868V65.186a1.251,1.251,0,0,0-1.234-1.234Z" transform="translate(0 -61.966)" fill="#403f50"/>
      <path id="Path_19447" data-name="Path 19447" d="M263.121,176.364a4.916,4.916,0,0,0,.82-2.728,4.966,4.966,0,0,0-.82-2.739,4.431,4.431,0,0,0-2.169-1.793,1.076,1.076,0,0,0-.482-.1,1.2,1.2,0,0,0-.868.357,1.178,1.178,0,0,0-.367.877,1.037,1.037,0,0,0,.232.685,2.249,2.249,0,0,0,.559.482q.327.2.656.444a1.943,1.943,0,0,1,.559.684,2.727,2.727,0,0,1,0,2.2,1.946,1.946,0,0,1-.559.685q-.328.241-.656.443a2.25,2.25,0,0,0-.559.482,1.041,1.041,0,0,0-.232.685,1.177,1.177,0,0,0,.367.877,1.2,1.2,0,0,0,.868.357,1.08,1.08,0,0,0,.482-.1A4.56,4.56,0,0,0,263.121,176.364Z" transform="translate(-241.727 -159.926)" fill="#403f50"/>
      <path id="Path_19448" data-name="Path 19448" d="M293.867,116.258a9.871,9.871,0,0,0,0-10.895,9.514,9.514,0,0,0-4.339-3.634,1.388,1.388,0,0,0-.5-.1,1.251,1.251,0,0,0-1.234,1.234,1.224,1.224,0,0,0,.752,1.138,11.966,11.966,0,0,1,1.465.848,7.373,7.373,0,0,1,0,11.916,11.951,11.951,0,0,1-1.465.848,1.224,1.224,0,0,0-.752,1.138,1.186,1.186,0,0,0,.366.868,1.207,1.207,0,0,0,.887.367,1.35,1.35,0,0,0,.482-.1A9.514,9.514,0,0,0,293.867,116.258Z" transform="translate(-268.356 -97.102)" fill="#403f50"/>
      <path id="Path_19449" data-name="Path 19449" d="M324.877,40.115a14.56,14.56,0,0,0-6.518-5.467,1.389,1.389,0,0,0-.5-.1,1.252,1.252,0,0,0-1.235,1.234,1.3,1.3,0,0,0,.752,1.138,4.47,4.47,0,0,0,.434.2,4.315,4.315,0,0,1,.434.2,14.672,14.672,0,0,1,1.582.983,12.294,12.294,0,0,1,3.7,4.377,12.337,12.337,0,0,1,0,11.145,12.288,12.288,0,0,1-3.7,4.377,14.747,14.747,0,0,1-1.582.983,4.515,4.515,0,0,1-.434.2,4.156,4.156,0,0,0-.434.2,1.3,1.3,0,0,0-.752,1.138,1.252,1.252,0,0,0,1.235,1.234,1.382,1.382,0,0,0,.5-.1,14.8,14.8,0,0,0,6.518-21.759Z" transform="translate(-295.24 -34.552)" fill="#403f50" stroke="#fff" stroke-width="0.5"/>
    </g>
  </g>
</svg>
